<svg xmlns="http://www.w3.org/2000/svg" viewBox="0 0 174.241 28.721">
  <path d="M23.952,5.554C22.659,2.235,19.393,0,15.855,0S9.053,2.236,7.761,5.554c-4.288,.119-7.761,3.663-7.761,7.979,0,3.819,2.718,7.033,6.315,7.805,2.304-.407,5.02-1.707,7.319-3.144,.539,.313,1.009,.773,1.503,1.153-2.682,2.045-5.31,3.76-8.704,4.257v4.213c6.282,1.166,12.564,1.241,18.846,0v-4.144c-3.278-.438-7.583-3.019-10.735-5.643-.592-.495-1.357-.823-2.122-.926-3.641-.487-3.633-1.272-6.575-3.88-.406-.361,.177-1.163,.713-.688l2.907,2.279c.386,.339,.993-.391,.583-.735l-2.938-2.479c-.409-.345,.238-1.164,.671-.847l3.089,2.286c.43,.318,1.002-.442,.581-.738l-2.892-2.303c-.584-.411,.062-1.163,.506-.849,3.218,2.257,3.981,2.068,5.297,5.495,.293,.763,.802,1.462,1.399,2.02,.731-.524,1.406-1.121,1.972-1.823,.618-.769,.276-1.28,.747-2.471,.571-1.447,2.674-2.577,4.537-2.692,2.27-.14,3.08,1.091,2.289,3.194-.644,1.721-2.263,3.37-3.779,3.523-1.273,.131-1.678-.35-2.579,.052-.605,.429-1.196,.88-1.784,1.335,2.255,1.593,5.337,3.236,8.113,3.583,3.656-.726,6.434-3.969,6.434-7.831,0-4.316-3.472-7.861-7.762-7.979Z" fill="currentColor" fill-rule="evenodd"/>
  <path d="M38.701,22.189c-.692-.296-1.24-.723-1.642-1.278s-.61-1.214-.622-1.971h2.663c.036,.509,.216,.911,.542,1.207s.772,.444,1.34,.444c.58,0,1.036-.139,1.367-.418,.331-.277,.497-.642,.497-1.092,0-.366-.112-.668-.337-.905-.225-.236-.506-.423-.843-.56-.337-.135-.802-.287-1.394-.452-.805-.237-1.459-.471-1.962-.701-.503-.231-.935-.58-1.296-1.048-.361-.467-.542-1.092-.542-1.873,0-.733,.184-1.373,.55-1.917s.882-.962,1.545-1.252c.663-.29,1.42-.435,2.272-.435,1.278,0,2.316,.311,3.116,.932,.799,.622,1.24,1.489,1.322,2.601h-2.734c-.024-.426-.204-.778-.542-1.056-.337-.278-.784-.417-1.34-.417-.485,0-.873,.125-1.163,.373s-.435,.609-.435,1.083c0,.331,.109,.606,.328,.825,.219,.219,.491,.397,.817,.533,.325,.136,.784,.293,1.376,.471,.805,.236,1.461,.473,1.971,.71,.508,.237,.947,.592,1.313,1.065,.367,.473,.55,1.095,.55,1.863,0,.664-.171,1.279-.515,1.848-.343,.567-.846,1.02-1.509,1.357-.663,.338-1.45,.506-2.361,.506-.864,0-1.642-.147-2.334-.443Z" fill="currentColor"/>
  <path d="M50.463,14.715v4.758c0,.332,.08,.571,.24,.719,.16,.148,.429,.223,.808,.223h1.154v2.095h-1.562c-2.095,0-3.142-1.018-3.142-3.054v-4.74h-1.172v-2.042h1.172v-2.433h2.503v2.433h2.202v2.042h-2.202Z" fill="currentColor"/>
  <path d="M63.743,12.673v9.835h-2.503v-1.243c-.319,.426-.737,.762-1.251,1.004-.515,.242-1.074,.363-1.678,.363-.77,0-1.45-.162-2.042-.488-.592-.325-1.057-.805-1.394-1.438s-.506-1.388-.506-2.264v-5.77h2.485v5.415c0,.781,.195,1.383,.586,1.803s.923,.63,1.598,.63c.686,0,1.225-.21,1.615-.63s.586-1.021,.586-1.803v-5.415h2.503Z" fill="currentColor"/>
  <path d="M70.702,14.715h-1.722v7.794h-2.521v-7.794h-1.118v-2.042h1.118v-.497c0-1.208,.343-2.095,1.03-2.663,.687-.568,1.722-.834,3.107-.799v2.095c-.604-.012-1.024,.089-1.261,.302s-.355,.598-.355,1.154v.409h1.722v2.042Z" fill="currentColor"/>
  <path d="M76.827,14.715h-1.722v7.794h-2.521v-7.794h-1.118v-2.042h1.118v-.497c0-1.208,.343-2.095,1.03-2.663,.687-.568,1.722-.834,3.107-.799v2.095c-.604-.012-1.024,.089-1.261,.302s-.355,.598-.355,1.154v.409h1.722v2.042Z" fill="currentColor"/>
  <path d="M87.514,18.336h-7.19c.059,.711,.308,1.268,.746,1.67s.977,.604,1.615,.604c.924,0,1.58-.396,1.971-1.189h2.682c-.284,.947-.829,1.725-1.634,2.334s-1.793,.914-2.965,.914c-.947,0-1.796-.209-2.548-.63-.751-.42-1.337-1.015-1.757-1.784-.42-.77-.63-1.656-.63-2.663,0-1.018,.207-1.911,.621-2.681,.415-.769,.995-1.361,1.74-1.775,.746-.414,1.604-.621,2.574-.621,.935,0,1.772,.201,2.512,.604,.74,.402,1.314,.974,1.723,1.713,.408,.74,.612,1.59,.612,2.548,0,.354-.023,.675-.071,.958Zm-2.503-1.668c-.012-.639-.243-1.15-.692-1.535-.45-.385-1-.578-1.651-.578-.615,0-1.133,.187-1.553,.559-.42,.373-.678,.891-.772,1.554h4.669Z" fill="currentColor"/>
  <path d="M89.352,14.91c.396-.769,.938-1.361,1.624-1.775,.687-.414,1.45-.621,2.291-.621,.639,0,1.248,.139,1.828,.417,.58,.278,1.041,.648,1.385,1.109v-4.669h2.521v13.138h-2.521v-1.456c-.308,.486-.739,.877-1.296,1.172-.557,.296-1.201,.443-1.936,.443-.828,0-1.586-.213-2.272-.639s-1.228-1.026-1.624-1.802-.595-1.666-.595-2.672c0-.994,.198-1.876,.595-2.646Zm6.791,1.127c-.237-.432-.557-.764-.959-.994s-.834-.346-1.296-.346-.888,.112-1.278,.338c-.391,.225-.707,.553-.95,.984-.242,.433-.363,.944-.363,1.536s.121,1.109,.363,1.554c.243,.443,.562,.783,.959,1.021s.819,.354,1.27,.354c.462,0,.894-.115,1.296-.346s.722-.562,.959-.994c.236-.432,.354-.949,.354-1.554s-.118-1.121-.354-1.554Z" fill="currentColor"/>
  <path d="M112.049,22.509l-2.734-4.829h-1.171v4.829h-2.486V10.117h4.652c.958,0,1.775,.168,2.449,.506,.675,.337,1.181,.793,1.519,1.367,.337,.574,.506,1.216,.506,1.926,0,.816-.237,1.553-.71,2.211-.474,.656-1.178,1.109-2.113,1.357l2.965,5.024h-2.876Zm-3.905-6.693h2.077c.674,0,1.177-.163,1.509-.487,.331-.326,.497-.779,.497-1.359,0-.568-.166-1.009-.497-1.323-.332-.313-.835-.47-1.509-.47h-2.077v3.639Z" fill="currentColor"/>
  <path d="M126.111,18.336h-7.19c.06,.711,.308,1.268,.746,1.67,.438,.402,.977,.604,1.615,.604,.924,0,1.58-.396,1.971-1.189h2.682c-.284,.947-.829,1.725-1.634,2.334s-1.793,.914-2.965,.914c-.947,0-1.796-.209-2.548-.63-.752-.42-1.338-1.015-1.758-1.784s-.63-1.656-.63-2.663c0-1.018,.207-1.911,.621-2.681,.414-.769,.994-1.361,1.74-1.775,.745-.414,1.604-.621,2.574-.621,.935,0,1.772,.201,2.512,.604,.74,.402,1.314,.974,1.723,1.713,.408,.74,.612,1.59,.612,2.548,0,.354-.023,.675-.071,.958Zm-2.503-1.668c-.012-.639-.243-1.15-.692-1.535-.45-.385-1-.578-1.651-.578-.615,0-1.133,.187-1.554,.559-.42,.373-.677,.891-.771,1.554h4.669Z" fill="currentColor"/>
  <path d="M127.974,14.919c.414-.763,.988-1.355,1.723-1.775,.733-.42,1.573-.63,2.521-.63,1.219,0,2.229,.305,3.027,.914,.799,.61,1.334,1.465,1.606,2.565h-2.681c-.142-.427-.382-.761-.719-1.003-.338-.243-.755-.364-1.252-.364-.71,0-1.272,.258-1.687,.772s-.621,1.246-.621,2.192c0,.936,.207,1.66,.621,2.175,.414,.516,.977,.772,1.687,.772,1.006,0,1.663-.45,1.971-1.349h2.681c-.272,1.064-.811,1.911-1.615,2.538-.806,.628-1.812,.94-3.019,.94-.947,0-1.787-.209-2.521-.63-.734-.42-1.309-1.012-1.723-1.774-.414-.764-.621-1.654-.621-2.673s.207-1.908,.621-2.672Z" fill="currentColor"/>
  <path d="M138.848,11.084c-.29-.278-.435-.625-.435-1.039s.145-.761,.435-1.039c.29-.278,.654-.417,1.092-.417s.802,.139,1.092,.417c.29,.278,.436,.625,.436,1.039s-.146,.76-.436,1.039c-.29,.278-.654,.417-1.092,.417s-.802-.139-1.092-.417Zm2.317,1.589v9.835h-2.486V12.673h2.486Z" fill="currentColor"/>
  <path d="M147.423,12.966c.562-.302,1.204-.453,1.926-.453,.841,0,1.602,.207,2.282,.621,.68,.415,1.219,1.003,1.615,1.767,.396,.763,.595,1.648,.595,2.654s-.198,1.896-.595,2.672-.936,1.376-1.615,1.802c-.681,.426-1.441,.639-2.282,.639-.722,0-1.357-.147-1.908-.443-.55-.295-.997-.668-1.34-1.118v6.089h-2.486V12.673h2.486v1.42c.319-.45,.76-.826,1.322-1.127Zm3.516,3.053c-.243-.432-.562-.76-.959-.984-.396-.226-.825-.338-1.287-.338-.45,0-.873,.115-1.27,.346s-.716,.566-.959,1.004c-.242,.438-.363,.953-.363,1.544s.121,1.106,.363,1.545c.243,.438,.562,.772,.959,1.003s.819,.346,1.27,.346c.462,0,.891-.117,1.287-.354s.716-.574,.959-1.013c.242-.438,.363-.958,.363-1.562,0-.592-.121-1.104-.363-1.536Z" fill="currentColor"/>
  <path d="M164.724,18.336h-7.19c.06,.711,.308,1.268,.746,1.67,.438,.402,.977,.604,1.615,.604,.924,0,1.58-.396,1.971-1.189h2.682c-.284,.947-.829,1.725-1.634,2.334s-1.793,.914-2.965,.914c-.947,0-1.796-.209-2.548-.63-.752-.42-1.338-1.015-1.758-1.784s-.63-1.656-.63-2.663c0-1.018,.207-1.911,.621-2.681,.414-.769,.994-1.361,1.74-1.775,.745-.414,1.604-.621,2.574-.621,.935,0,1.772,.201,2.512,.604,.74,.402,1.314,.974,1.723,1.713,.408,.74,.612,1.59,.612,2.548,0,.354-.023,.675-.071,.958Zm-2.503-1.668c-.012-.639-.243-1.15-.692-1.535-.45-.385-1-.578-1.651-.578-.615,0-1.133,.187-1.554,.559-.42,.373-.677,.891-.771,1.554h4.669Z" fill="currentColor"/>
  <path d="M168.204,22.233c-.64-.29-1.146-.683-1.519-1.181-.373-.497-.577-1.047-.612-1.65h2.503c.048,.379,.234,.691,.56,.94s.73,.373,1.216,.373c.474,0,.844-.095,1.11-.284,.266-.189,.399-.432,.399-.729,0-.318-.163-.559-.488-.719-.326-.16-.844-.334-1.554-.523-.734-.178-1.335-.361-1.802-.551-.468-.189-.87-.479-1.208-.869-.337-.391-.506-.918-.506-1.58,0-.544,.157-1.042,.471-1.492s.764-.805,1.35-1.065c.586-.26,1.275-.39,2.068-.39,1.172,0,2.106,.292,2.805,.878s1.083,1.376,1.154,2.37h-2.379c-.036-.391-.198-.701-.488-.932s-.678-.346-1.163-.346c-.45,0-.796,.083-1.039,.249-.242,.166-.363,.396-.363,.692,0,.331,.165,.583,.497,.755,.331,.172,.846,.346,1.544,.523,.711,.178,1.297,.361,1.758,.551,.462,.189,.861,.482,1.198,.879,.338,.396,.513,.92,.524,1.57,0,.568-.157,1.078-.471,1.527-.313,.45-.764,.803-1.35,1.057s-1.27,.381-2.05,.381c-.806,0-1.527-.145-2.166-.435Z" fill="currentColor"/>
</svg>